<mxfile host="app.diagrams.net" modified="2023-04-28T06:40:47.530Z" agent="Mozilla/5.0 (Windows NT 10.0; Win64; x64) AppleWebKit/537.36 (KHTML, like Gecko) Chrome/112.0.0.0 Safari/537.36" etag="w88Oce5g3ur_gBoIl6IO" version="21.2.3" type="github" pages="4">
  <diagram id="C4ZXbXSwpA9Ds7LbtQES" name="FreeDoc">
    <mxGraphModel dx="1434" dy="764" grid="1" gridSize="10" guides="1" tooltips="1" connect="1" arrows="1" fold="1" page="1" pageScale="1" pageWidth="827" pageHeight="1169" math="0" shadow="0">
      <root>
        <mxCell id="0" />
        <mxCell id="1" parent="0" />
        <mxCell id="9yEDljb2EAkj21iSUvM7-1" value="&lt;p style=&quot;margin:0px;margin-top:4px;text-align:center;&quot;&gt;&lt;b&gt;Doctor&lt;/b&gt;&lt;/p&gt;&lt;hr size=&quot;1&quot;&gt;&lt;p style=&quot;margin:0px;margin-left:4px;&quot;&gt;+ doc_id: INTEGER [PK]&lt;br&gt;&lt;/p&gt;&lt;hr size=&quot;1&quot;&gt;&lt;p style=&quot;margin:0px;margin-left:4px;&quot;&gt;+ first_name: VARCHAR&amp;nbsp;&lt;br&gt;&lt;/p&gt;&lt;p style=&quot;margin:0px;margin-left:4px;&quot;&gt;+ last_name: VARCHAR&amp;nbsp;&lt;br&gt;&lt;span style=&quot;background-color: initial;&quot;&gt;+ zip_code: VARCHAR&amp;nbsp;&lt;/span&gt;&lt;br&gt;&lt;/p&gt;&lt;p style=&quot;margin:0px;margin-left:4px;&quot;&gt;+ city_id [FK]&lt;br&gt;&lt;/p&gt;" style="verticalAlign=top;align=left;overflow=fill;fontSize=12;fontFamily=Helvetica;html=1;rounded=0;shadow=0;comic=0;labelBackgroundColor=none;strokeWidth=1" parent="1" vertex="1">
          <mxGeometry x="44" y="515" width="190" height="145" as="geometry" />
        </mxCell>
        <mxCell id="9yEDljb2EAkj21iSUvM7-2" value="&lt;p style=&quot;margin:0px;margin-top:4px;text-align:center;&quot;&gt;&lt;b&gt;Patient&lt;/b&gt;&lt;/p&gt;&lt;hr size=&quot;1&quot;&gt;&lt;p style=&quot;margin:0px;margin-left:4px;&quot;&gt;+ patient_id: INTEGER [PK]&lt;br&gt;&lt;/p&gt;&lt;hr size=&quot;1&quot;&gt;&lt;p style=&quot;margin:0px;margin-left:4px;&quot;&gt;+ first_name: VARCHAR&amp;nbsp;&lt;br data-darkreader-inline-border=&quot;&quot; style=&quot;border-color: var(--darkreader-border--border-color); --darkreader-inline-border:var(--darkreader-border--darkreader-border--border-color);&quot;&gt;&lt;/p&gt;&lt;p style=&quot;margin:0px;margin-left:4px;&quot;&gt;+ last_name: VARCHAR&amp;nbsp;&lt;br&gt;&lt;/p&gt;&lt;p style=&quot;margin:0px;margin-left:4px;&quot;&gt;+ city_id : INTEGER [FK]&lt;br&gt;&lt;/p&gt;" style="verticalAlign=top;align=left;overflow=fill;fontSize=12;fontFamily=Helvetica;html=1;rounded=0;shadow=0;comic=0;labelBackgroundColor=none;strokeWidth=1" parent="1" vertex="1">
          <mxGeometry x="594" y="515" width="190" height="113" as="geometry" />
        </mxCell>
        <mxCell id="9yEDljb2EAkj21iSUvM7-3" value="&lt;p style=&quot;margin:0px;margin-top:4px;text-align:center;&quot;&gt;&lt;b&gt;Appointment&lt;/b&gt;&lt;/p&gt;&lt;hr size=&quot;1&quot;&gt;&lt;p style=&quot;margin:0px;margin-left:4px;&quot;&gt;+&amp;nbsp; appointment_id [PK]&lt;br&gt;&lt;/p&gt;&lt;hr size=&quot;1&quot;&gt;&lt;p style=&quot;margin:0px;margin-left:4px;&quot;&gt;+ date: DATE&lt;/p&gt;&lt;p style=&quot;margin:0px;margin-left:4px;&quot;&gt;+ doc_id: INTEGER [FK]&lt;br&gt;&lt;/p&gt;&lt;p style=&quot;margin:0px;margin-left:4px;&quot;&gt;+ patient_id: INTEGER [FK]&lt;br&gt;&lt;/p&gt;&lt;p style=&quot;margin:0px;margin-left:4px;&quot;&gt;+ city_id : INTEGER [FK]&lt;/p&gt;" style="verticalAlign=top;align=left;overflow=fill;fontSize=12;fontFamily=Helvetica;html=1;rounded=0;shadow=0;comic=0;labelBackgroundColor=none;strokeWidth=1" parent="1" vertex="1">
          <mxGeometry x="323" y="515" width="190" height="125" as="geometry" />
        </mxCell>
        <mxCell id="noZd9nVreFTfB58cdb-z-25" value="" style="group" parent="1" vertex="1" connectable="0">
          <mxGeometry x="263" y="575" width="60" height="20" as="geometry" />
        </mxCell>
        <mxCell id="noZd9nVreFTfB58cdb-z-19" value="" style="endArrow=classic;html=1;rounded=0;exitX=1.001;exitY=0.48;exitDx=0;exitDy=0;exitPerimeter=0;" parent="noZd9nVreFTfB58cdb-z-25" source="9yEDljb2EAkj21iSUvM7-1" edge="1">
          <mxGeometry width="50" height="50" relative="1" as="geometry">
            <mxPoint x="-23" y="10" as="sourcePoint" />
            <mxPoint x="60" y="10" as="targetPoint" />
          </mxGeometry>
        </mxCell>
        <mxCell id="noZd9nVreFTfB58cdb-z-22" value="" style="endArrow=classic;html=1;rounded=0;" parent="noZd9nVreFTfB58cdb-z-25" edge="1">
          <mxGeometry width="50" height="50" relative="1" as="geometry">
            <mxPoint x="30" y="10" as="sourcePoint" />
            <mxPoint x="60" as="targetPoint" />
            <Array as="points">
              <mxPoint x="30" />
            </Array>
          </mxGeometry>
        </mxCell>
        <mxCell id="noZd9nVreFTfB58cdb-z-24" value="" style="endArrow=classic;html=1;rounded=0;" parent="noZd9nVreFTfB58cdb-z-25" edge="1">
          <mxGeometry width="50" height="50" relative="1" as="geometry">
            <mxPoint x="30" y="10" as="sourcePoint" />
            <mxPoint x="60" y="20" as="targetPoint" />
            <Array as="points">
              <mxPoint x="30" y="20" />
            </Array>
          </mxGeometry>
        </mxCell>
        <mxCell id="noZd9nVreFTfB58cdb-z-26" value="" style="group;rotation=-180;" parent="1" vertex="1" connectable="0">
          <mxGeometry x="513" y="575" width="60" height="20" as="geometry" />
        </mxCell>
        <mxCell id="noZd9nVreFTfB58cdb-z-27" value="" style="endArrow=classic;html=1;rounded=0;exitX=0.001;exitY=0.618;exitDx=0;exitDy=0;exitPerimeter=0;" parent="noZd9nVreFTfB58cdb-z-26" source="9yEDljb2EAkj21iSUvM7-2" edge="1">
          <mxGeometry width="50" height="50" relative="1" as="geometry">
            <mxPoint x="57" y="10" as="sourcePoint" />
            <mxPoint y="10" as="targetPoint" />
          </mxGeometry>
        </mxCell>
        <mxCell id="noZd9nVreFTfB58cdb-z-28" value="" style="endArrow=classic;html=1;rounded=0;" parent="noZd9nVreFTfB58cdb-z-26" edge="1">
          <mxGeometry width="50" height="50" relative="1" as="geometry">
            <mxPoint x="30" y="10" as="sourcePoint" />
            <mxPoint y="20" as="targetPoint" />
            <Array as="points">
              <mxPoint x="30" y="20" />
            </Array>
          </mxGeometry>
        </mxCell>
        <mxCell id="noZd9nVreFTfB58cdb-z-29" value="" style="endArrow=classic;html=1;rounded=0;" parent="noZd9nVreFTfB58cdb-z-26" edge="1">
          <mxGeometry width="50" height="50" relative="1" as="geometry">
            <mxPoint x="30" y="10" as="sourcePoint" />
            <mxPoint as="targetPoint" />
            <Array as="points">
              <mxPoint x="30" />
            </Array>
          </mxGeometry>
        </mxCell>
        <mxCell id="noZd9nVreFTfB58cdb-z-30" value="&lt;p style=&quot;margin:0px;margin-top:4px;text-align:center;&quot;&gt;&lt;b&gt;City&lt;/b&gt;&lt;/p&gt;&lt;hr size=&quot;1&quot;&gt;&lt;p style=&quot;margin:0px;margin-left:4px;&quot;&gt;+&amp;nbsp; city_id [PK]&lt;br&gt;&lt;/p&gt;&lt;hr size=&quot;1&quot;&gt;&lt;p style=&quot;margin:0px;margin-left:4px;&quot;&gt;+ name: INTEGER&lt;/p&gt;&lt;p style=&quot;margin:0px;margin-left:4px;&quot;&gt;+ region : INTEGER&lt;/p&gt;" style="verticalAlign=top;align=left;overflow=fill;fontSize=12;fontFamily=Helvetica;html=1;rounded=0;shadow=0;comic=0;labelBackgroundColor=none;strokeWidth=1" parent="1" vertex="1">
          <mxGeometry x="323" y="290" width="190" height="140" as="geometry" />
        </mxCell>
        <mxCell id="noZd9nVreFTfB58cdb-z-31" value="&lt;p style=&quot;margin:0px;margin-top:4px;text-align:center;&quot;&gt;&lt;b&gt;Association table doc/speciality&lt;/b&gt;&lt;/p&gt;&lt;hr size=&quot;1&quot;&gt;&lt;p style=&quot;margin:0px;margin-left:4px;&quot;&gt;+ speciality_id: INTEGER [PK][FK]&lt;br&gt;&lt;/p&gt;&lt;hr size=&quot;1&quot;&gt;&lt;p style=&quot;margin:0px;margin-left:4px;&quot;&gt;+ doc_id: INTEGER [PK][FK]&lt;/p&gt;" style="verticalAlign=top;align=left;overflow=fill;fontSize=12;fontFamily=Helvetica;html=1;rounded=0;shadow=0;comic=0;labelBackgroundColor=none;strokeWidth=1" parent="1" vertex="1">
          <mxGeometry x="44" y="722" width="190" height="80" as="geometry" />
        </mxCell>
        <mxCell id="noZd9nVreFTfB58cdb-z-32" value="" style="group;rotation=90;" parent="1" vertex="1" connectable="0">
          <mxGeometry x="384" y="474" width="60" height="20" as="geometry" />
        </mxCell>
        <mxCell id="noZd9nVreFTfB58cdb-z-33" value="" style="endArrow=classic;html=1;rounded=0;exitX=0.478;exitY=1;exitDx=0;exitDy=0;exitPerimeter=0;" parent="noZd9nVreFTfB58cdb-z-32" source="noZd9nVreFTfB58cdb-z-30" edge="1">
          <mxGeometry width="50" height="50" relative="1" as="geometry">
            <mxPoint x="30" y="-34" as="sourcePoint" />
            <mxPoint x="30" y="40" as="targetPoint" />
          </mxGeometry>
        </mxCell>
        <mxCell id="noZd9nVreFTfB58cdb-z-34" value="" style="endArrow=classic;html=1;rounded=0;" parent="noZd9nVreFTfB58cdb-z-32" edge="1">
          <mxGeometry width="50" height="50" relative="1" as="geometry">
            <mxPoint x="30" y="10" as="sourcePoint" />
            <mxPoint x="40" y="40" as="targetPoint" />
            <Array as="points">
              <mxPoint x="40" y="10" />
            </Array>
          </mxGeometry>
        </mxCell>
        <mxCell id="noZd9nVreFTfB58cdb-z-35" value="" style="endArrow=classic;html=1;rounded=0;" parent="noZd9nVreFTfB58cdb-z-32" edge="1">
          <mxGeometry width="50" height="50" relative="1" as="geometry">
            <mxPoint x="30" y="10" as="sourcePoint" />
            <mxPoint x="20" y="40" as="targetPoint" />
            <Array as="points">
              <mxPoint x="20" y="10" />
            </Array>
          </mxGeometry>
        </mxCell>
        <mxCell id="noZd9nVreFTfB58cdb-z-39" value="" style="group;rotation=90;" parent="1" vertex="1" connectable="0">
          <mxGeometry x="660" y="475" width="60" height="20" as="geometry" />
        </mxCell>
        <mxCell id="noZd9nVreFTfB58cdb-z-40" value="" style="endArrow=classic;html=1;rounded=0;exitX=1.005;exitY=0.428;exitDx=0;exitDy=0;exitPerimeter=0;" parent="noZd9nVreFTfB58cdb-z-39" source="noZd9nVreFTfB58cdb-z-30" edge="1">
          <mxGeometry width="50" height="50" relative="1" as="geometry">
            <mxPoint x="-130" y="-125" as="sourcePoint" />
            <mxPoint x="30" y="40" as="targetPoint" />
            <Array as="points">
              <mxPoint x="30" y="-125" />
            </Array>
          </mxGeometry>
        </mxCell>
        <mxCell id="noZd9nVreFTfB58cdb-z-41" value="" style="endArrow=classic;html=1;rounded=0;" parent="noZd9nVreFTfB58cdb-z-39" edge="1">
          <mxGeometry width="50" height="50" relative="1" as="geometry">
            <mxPoint x="30" y="10" as="sourcePoint" />
            <mxPoint x="40" y="40" as="targetPoint" />
            <Array as="points">
              <mxPoint x="40" y="10" />
            </Array>
          </mxGeometry>
        </mxCell>
        <mxCell id="noZd9nVreFTfB58cdb-z-42" value="" style="endArrow=classic;html=1;rounded=0;" parent="noZd9nVreFTfB58cdb-z-39" edge="1">
          <mxGeometry width="50" height="50" relative="1" as="geometry">
            <mxPoint x="30" y="10" as="sourcePoint" />
            <mxPoint x="20" y="40" as="targetPoint" />
            <Array as="points">
              <mxPoint x="20" y="10" />
            </Array>
          </mxGeometry>
        </mxCell>
        <mxCell id="noZd9nVreFTfB58cdb-z-45" value="" style="group;rotation=90;" parent="1" vertex="1" connectable="0">
          <mxGeometry x="109" y="474" width="60" height="20" as="geometry" />
        </mxCell>
        <mxCell id="noZd9nVreFTfB58cdb-z-46" value="" style="endArrow=classic;html=1;rounded=0;exitX=0.002;exitY=0.428;exitDx=0;exitDy=0;exitPerimeter=0;" parent="noZd9nVreFTfB58cdb-z-45" source="noZd9nVreFTfB58cdb-z-30" edge="1">
          <mxGeometry width="50" height="50" relative="1" as="geometry">
            <mxPoint x="30" y="-34" as="sourcePoint" />
            <mxPoint x="30" y="40" as="targetPoint" />
            <Array as="points">
              <mxPoint x="31" y="-124" />
            </Array>
          </mxGeometry>
        </mxCell>
        <mxCell id="noZd9nVreFTfB58cdb-z-47" value="" style="endArrow=classic;html=1;rounded=0;" parent="noZd9nVreFTfB58cdb-z-45" edge="1">
          <mxGeometry width="50" height="50" relative="1" as="geometry">
            <mxPoint x="30" y="10" as="sourcePoint" />
            <mxPoint x="40" y="40" as="targetPoint" />
            <Array as="points">
              <mxPoint x="40" y="10" />
            </Array>
          </mxGeometry>
        </mxCell>
        <mxCell id="noZd9nVreFTfB58cdb-z-48" value="" style="endArrow=classic;html=1;rounded=0;" parent="noZd9nVreFTfB58cdb-z-45" edge="1">
          <mxGeometry width="50" height="50" relative="1" as="geometry">
            <mxPoint x="30" y="10" as="sourcePoint" />
            <mxPoint x="20" y="40" as="targetPoint" />
            <Array as="points">
              <mxPoint x="20" y="10" />
            </Array>
          </mxGeometry>
        </mxCell>
        <mxCell id="noZd9nVreFTfB58cdb-z-51" value="" style="group;rotation=90;" parent="1" vertex="1" connectable="0">
          <mxGeometry x="109.5" y="680.5" width="59" height="20" as="geometry" />
        </mxCell>
        <mxCell id="noZd9nVreFTfB58cdb-z-52" value="" style="endArrow=classic;html=1;rounded=0;" parent="noZd9nVreFTfB58cdb-z-51" edge="1">
          <mxGeometry width="50" height="50" relative="1" as="geometry">
            <mxPoint x="28.5" y="-20.5" as="sourcePoint" />
            <mxPoint x="28.516666666666666" y="41" as="targetPoint" />
            <Array as="points" />
          </mxGeometry>
        </mxCell>
        <mxCell id="noZd9nVreFTfB58cdb-z-53" value="" style="endArrow=classic;html=1;rounded=0;" parent="noZd9nVreFTfB58cdb-z-51" edge="1">
          <mxGeometry width="50" height="50" relative="1" as="geometry">
            <mxPoint x="28.516666666666666" y="11" as="sourcePoint" />
            <mxPoint x="38.35" y="41" as="targetPoint" />
            <Array as="points">
              <mxPoint x="38.35" y="11" />
            </Array>
          </mxGeometry>
        </mxCell>
        <mxCell id="noZd9nVreFTfB58cdb-z-54" value="" style="endArrow=classic;html=1;rounded=0;" parent="noZd9nVreFTfB58cdb-z-51" edge="1">
          <mxGeometry width="50" height="50" relative="1" as="geometry">
            <mxPoint x="28.516666666666666" y="11" as="sourcePoint" />
            <mxPoint x="18.683333333333334" y="41" as="targetPoint" />
            <Array as="points">
              <mxPoint x="18.683333333333334" y="11" />
            </Array>
          </mxGeometry>
        </mxCell>
        <mxCell id="noZd9nVreFTfB58cdb-z-59" value="&lt;p style=&quot;margin:0px;margin-top:4px;text-align:center;&quot;&gt;&lt;b&gt;Speciality&lt;/b&gt;&lt;/p&gt;&lt;hr size=&quot;1&quot;&gt;&lt;p style=&quot;margin:0px;margin-left:4px;&quot;&gt;+ speciality_id: INTEGER [PK]&lt;br&gt;&lt;/p&gt;&lt;hr size=&quot;1&quot;&gt;&lt;p style=&quot;margin:0px;margin-left:4px;&quot;&gt;+ speciality: VARCHAR&amp;nbsp;&lt;/p&gt;" style="verticalAlign=top;align=left;overflow=fill;fontSize=12;fontFamily=Helvetica;html=1;rounded=0;shadow=0;comic=0;labelBackgroundColor=none;strokeWidth=1" parent="1" vertex="1">
          <mxGeometry x="44" y="866" width="190" height="80" as="geometry" />
        </mxCell>
        <mxCell id="noZd9nVreFTfB58cdb-z-60" value="" style="group;rotation=-90;" parent="1" vertex="1" connectable="0">
          <mxGeometry x="110.5" y="823.5" width="60" height="20" as="geometry" />
        </mxCell>
        <mxCell id="noZd9nVreFTfB58cdb-z-61" value="" style="endArrow=classic;html=1;rounded=0;" parent="noZd9nVreFTfB58cdb-z-60" edge="1">
          <mxGeometry width="50" height="50" relative="1" as="geometry">
            <mxPoint x="30.508474576271183" y="42" as="sourcePoint" />
            <mxPoint x="30.508474576271183" y="-20" as="targetPoint" />
            <Array as="points" />
          </mxGeometry>
        </mxCell>
        <mxCell id="noZd9nVreFTfB58cdb-z-62" value="" style="endArrow=classic;html=1;rounded=0;" parent="noZd9nVreFTfB58cdb-z-60" edge="1">
          <mxGeometry width="50" height="50" relative="1" as="geometry">
            <mxPoint x="30.508474576271183" y="10" as="sourcePoint" />
            <mxPoint x="21.35593220338983" y="-20" as="targetPoint" />
            <Array as="points">
              <mxPoint x="21.35593220338983" y="10" />
            </Array>
          </mxGeometry>
        </mxCell>
        <mxCell id="noZd9nVreFTfB58cdb-z-63" value="" style="endArrow=classic;html=1;rounded=0;" parent="noZd9nVreFTfB58cdb-z-60" edge="1">
          <mxGeometry width="50" height="50" relative="1" as="geometry">
            <mxPoint x="30.508474576271183" y="10" as="sourcePoint" />
            <mxPoint x="40.67796610169491" y="-20" as="targetPoint" />
            <Array as="points">
              <mxPoint x="40.67796610169491" y="10" />
            </Array>
          </mxGeometry>
        </mxCell>
      </root>
    </mxGraphModel>
  </diagram>
  <diagram name="AirbnbDogs" id="PbxGyuk-bY-AGPB5u6Eu">
    <mxGraphModel dx="1434" dy="764" grid="1" gridSize="10" guides="1" tooltips="1" connect="1" arrows="1" fold="1" page="1" pageScale="1" pageWidth="827" pageHeight="1169" math="0" shadow="0">
      <root>
        <mxCell id="Y6pNkMtKiFr7nWtNzLxB-0" />
        <mxCell id="Y6pNkMtKiFr7nWtNzLxB-1" parent="Y6pNkMtKiFr7nWtNzLxB-0" />
        <mxCell id="Y6pNkMtKiFr7nWtNzLxB-2" value="&lt;p style=&quot;margin:0px;margin-top:4px;text-align:center;&quot;&gt;&lt;b&gt;Dogsitter&lt;/b&gt;&lt;/p&gt;&lt;hr size=&quot;1&quot;&gt;&lt;p style=&quot;margin:0px;margin-left:4px;&quot;&gt;+ dogsitter_id: INTEGER [PK]&lt;br&gt;&lt;/p&gt;&lt;hr size=&quot;1&quot;&gt;&lt;p style=&quot;margin:0px;margin-left:4px;&quot;&gt;+ first_name: VARCHAR&amp;nbsp;&lt;br&gt;&lt;/p&gt;&lt;p style=&quot;margin:0px;margin-left:4px;&quot;&gt;+ last_name: VARCHAR&amp;nbsp;&lt;br&gt;&lt;span style=&quot;background-color: initial;&quot;&gt;+ zip_code: VARCHAR&amp;nbsp;&lt;/span&gt;&lt;br&gt;&lt;/p&gt;&lt;p style=&quot;margin:0px;margin-left:4px;&quot;&gt;+ city_id [FK]&lt;br&gt;&lt;/p&gt;" style="verticalAlign=top;align=left;overflow=fill;fontSize=12;fontFamily=Helvetica;html=1;rounded=0;shadow=0;comic=0;labelBackgroundColor=none;strokeWidth=1" parent="Y6pNkMtKiFr7nWtNzLxB-1" vertex="1">
          <mxGeometry x="44" y="515" width="190" height="145" as="geometry" />
        </mxCell>
        <mxCell id="Y6pNkMtKiFr7nWtNzLxB-3" value="&lt;p style=&quot;margin:0px;margin-top:4px;text-align:center;&quot;&gt;&lt;b&gt;Dog&lt;/b&gt;&lt;/p&gt;&lt;hr size=&quot;1&quot;&gt;&lt;p style=&quot;margin:0px;margin-left:4px;&quot;&gt;+ dog_id: INTEGER [PK]&lt;br&gt;&lt;/p&gt;&lt;hr size=&quot;1&quot;&gt;&lt;p style=&quot;margin:0px;margin-left:4px;&quot;&gt;+ race: VARCHAR&amp;nbsp;&lt;br data-darkreader-inline-border=&quot;&quot; style=&quot;border-color: var(--darkreader-border--border-color); --darkreader-inline-border:var(--darkreader-border--darkreader-border--border-color);&quot;&gt;&lt;/p&gt;&lt;p style=&quot;margin:0px;margin-left:4px;&quot;&gt;+ age: INTEGER&amp;nbsp;&lt;br&gt;&lt;/p&gt;&lt;p style=&quot;margin:0px;margin-left:4px;&quot;&gt;+ city_id [FK]&lt;br&gt;&lt;/p&gt;" style="verticalAlign=top;align=left;overflow=fill;fontSize=12;fontFamily=Helvetica;html=1;rounded=0;shadow=0;comic=0;labelBackgroundColor=none;strokeWidth=1" parent="Y6pNkMtKiFr7nWtNzLxB-1" vertex="1">
          <mxGeometry x="594" y="515" width="190" height="113" as="geometry" />
        </mxCell>
        <mxCell id="Y6pNkMtKiFr7nWtNzLxB-4" value="&lt;p style=&quot;margin:0px;margin-top:4px;text-align:center;&quot;&gt;&lt;b&gt;Stroll&lt;/b&gt;&lt;/p&gt;&lt;hr size=&quot;1&quot;&gt;&lt;p style=&quot;margin:0px;margin-left:4px;&quot;&gt;+&amp;nbsp; stroll_id [PK]&lt;br&gt;&lt;/p&gt;&lt;hr size=&quot;1&quot;&gt;&lt;p style=&quot;margin:0px;margin-left:4px;&quot;&gt;+ date: DATE&lt;/p&gt;&lt;p style=&quot;margin:0px;margin-left:4px;&quot;&gt;+ dog_id: INTEGER [FK]&lt;br&gt;&lt;/p&gt;&lt;p style=&quot;margin:0px;margin-left:4px;&quot;&gt;+ dogsitter_id: INTEGER [FK]&lt;br&gt;&lt;/p&gt;&lt;p style=&quot;margin:0px;margin-left:4px;&quot;&gt;+ city_id : INTEGER [FK]&lt;/p&gt;" style="verticalAlign=top;align=left;overflow=fill;fontSize=12;fontFamily=Helvetica;html=1;rounded=0;shadow=0;comic=0;labelBackgroundColor=none;strokeWidth=1" parent="Y6pNkMtKiFr7nWtNzLxB-1" vertex="1">
          <mxGeometry x="323" y="515" width="190" height="125" as="geometry" />
        </mxCell>
        <mxCell id="Y6pNkMtKiFr7nWtNzLxB-5" value="" style="group" parent="Y6pNkMtKiFr7nWtNzLxB-1" vertex="1" connectable="0">
          <mxGeometry x="263" y="575" width="60" height="20" as="geometry" />
        </mxCell>
        <mxCell id="Y6pNkMtKiFr7nWtNzLxB-6" value="" style="endArrow=classic;html=1;rounded=0;exitX=1.001;exitY=0.48;exitDx=0;exitDy=0;exitPerimeter=0;" parent="Y6pNkMtKiFr7nWtNzLxB-5" source="Y6pNkMtKiFr7nWtNzLxB-2" edge="1">
          <mxGeometry width="50" height="50" relative="1" as="geometry">
            <mxPoint x="-23" y="10" as="sourcePoint" />
            <mxPoint x="60" y="10" as="targetPoint" />
          </mxGeometry>
        </mxCell>
        <mxCell id="Y6pNkMtKiFr7nWtNzLxB-7" value="" style="endArrow=classic;html=1;rounded=0;" parent="Y6pNkMtKiFr7nWtNzLxB-5" edge="1">
          <mxGeometry width="50" height="50" relative="1" as="geometry">
            <mxPoint x="30" y="10" as="sourcePoint" />
            <mxPoint x="60" as="targetPoint" />
            <Array as="points">
              <mxPoint x="30" />
            </Array>
          </mxGeometry>
        </mxCell>
        <mxCell id="Y6pNkMtKiFr7nWtNzLxB-8" value="" style="endArrow=classic;html=1;rounded=0;" parent="Y6pNkMtKiFr7nWtNzLxB-5" edge="1">
          <mxGeometry width="50" height="50" relative="1" as="geometry">
            <mxPoint x="30" y="10" as="sourcePoint" />
            <mxPoint x="60" y="20" as="targetPoint" />
            <Array as="points">
              <mxPoint x="30" y="20" />
            </Array>
          </mxGeometry>
        </mxCell>
        <mxCell id="Y6pNkMtKiFr7nWtNzLxB-9" value="" style="group;rotation=-180;" parent="Y6pNkMtKiFr7nWtNzLxB-1" vertex="1" connectable="0">
          <mxGeometry x="513" y="575" width="60" height="20" as="geometry" />
        </mxCell>
        <mxCell id="Y6pNkMtKiFr7nWtNzLxB-10" value="" style="endArrow=classic;html=1;rounded=0;exitX=0.001;exitY=0.618;exitDx=0;exitDy=0;exitPerimeter=0;" parent="Y6pNkMtKiFr7nWtNzLxB-9" source="Y6pNkMtKiFr7nWtNzLxB-3" edge="1">
          <mxGeometry width="50" height="50" relative="1" as="geometry">
            <mxPoint x="57" y="10" as="sourcePoint" />
            <mxPoint y="10" as="targetPoint" />
          </mxGeometry>
        </mxCell>
        <mxCell id="Y6pNkMtKiFr7nWtNzLxB-11" value="" style="endArrow=classic;html=1;rounded=0;" parent="Y6pNkMtKiFr7nWtNzLxB-9" edge="1">
          <mxGeometry width="50" height="50" relative="1" as="geometry">
            <mxPoint x="30" y="10" as="sourcePoint" />
            <mxPoint y="20" as="targetPoint" />
            <Array as="points">
              <mxPoint x="30" y="20" />
            </Array>
          </mxGeometry>
        </mxCell>
        <mxCell id="Y6pNkMtKiFr7nWtNzLxB-12" value="" style="endArrow=classic;html=1;rounded=0;" parent="Y6pNkMtKiFr7nWtNzLxB-9" edge="1">
          <mxGeometry width="50" height="50" relative="1" as="geometry">
            <mxPoint x="30" y="10" as="sourcePoint" />
            <mxPoint as="targetPoint" />
            <Array as="points">
              <mxPoint x="30" />
            </Array>
          </mxGeometry>
        </mxCell>
        <mxCell id="Y6pNkMtKiFr7nWtNzLxB-13" value="&lt;p style=&quot;margin:0px;margin-top:4px;text-align:center;&quot;&gt;&lt;b&gt;City&lt;/b&gt;&lt;/p&gt;&lt;hr size=&quot;1&quot;&gt;&lt;p style=&quot;margin:0px;margin-left:4px;&quot;&gt;+&amp;nbsp; city_id [PK]&lt;br&gt;&lt;/p&gt;&lt;hr size=&quot;1&quot;&gt;&lt;p style=&quot;margin:0px;margin-left:4px;&quot;&gt;+ name: INTEGER&lt;/p&gt;&lt;p style=&quot;margin:0px;margin-left:4px;&quot;&gt;+ region : INTEGER&lt;/p&gt;" style="verticalAlign=top;align=left;overflow=fill;fontSize=12;fontFamily=Helvetica;html=1;rounded=0;shadow=0;comic=0;labelBackgroundColor=none;strokeWidth=1" parent="Y6pNkMtKiFr7nWtNzLxB-1" vertex="1">
          <mxGeometry x="323" y="290" width="190" height="140" as="geometry" />
        </mxCell>
        <mxCell id="Y6pNkMtKiFr7nWtNzLxB-15" value="" style="group;rotation=90;" parent="Y6pNkMtKiFr7nWtNzLxB-1" vertex="1" connectable="0">
          <mxGeometry x="384" y="474" width="60" height="20" as="geometry" />
        </mxCell>
        <mxCell id="Y6pNkMtKiFr7nWtNzLxB-16" value="" style="endArrow=classic;html=1;rounded=0;exitX=0.478;exitY=1;exitDx=0;exitDy=0;exitPerimeter=0;" parent="Y6pNkMtKiFr7nWtNzLxB-15" source="Y6pNkMtKiFr7nWtNzLxB-13" edge="1">
          <mxGeometry width="50" height="50" relative="1" as="geometry">
            <mxPoint x="30" y="-34" as="sourcePoint" />
            <mxPoint x="30" y="40" as="targetPoint" />
          </mxGeometry>
        </mxCell>
        <mxCell id="Y6pNkMtKiFr7nWtNzLxB-17" value="" style="endArrow=classic;html=1;rounded=0;" parent="Y6pNkMtKiFr7nWtNzLxB-15" edge="1">
          <mxGeometry width="50" height="50" relative="1" as="geometry">
            <mxPoint x="30" y="10" as="sourcePoint" />
            <mxPoint x="40" y="40" as="targetPoint" />
            <Array as="points">
              <mxPoint x="40" y="10" />
            </Array>
          </mxGeometry>
        </mxCell>
        <mxCell id="Y6pNkMtKiFr7nWtNzLxB-18" value="" style="endArrow=classic;html=1;rounded=0;" parent="Y6pNkMtKiFr7nWtNzLxB-15" edge="1">
          <mxGeometry width="50" height="50" relative="1" as="geometry">
            <mxPoint x="30" y="10" as="sourcePoint" />
            <mxPoint x="20" y="40" as="targetPoint" />
            <Array as="points">
              <mxPoint x="20" y="10" />
            </Array>
          </mxGeometry>
        </mxCell>
        <mxCell id="Y6pNkMtKiFr7nWtNzLxB-19" value="" style="group;rotation=90;" parent="Y6pNkMtKiFr7nWtNzLxB-1" vertex="1" connectable="0">
          <mxGeometry x="660" y="475" width="60" height="20" as="geometry" />
        </mxCell>
        <mxCell id="Y6pNkMtKiFr7nWtNzLxB-20" value="" style="endArrow=classic;html=1;rounded=0;exitX=1.005;exitY=0.428;exitDx=0;exitDy=0;exitPerimeter=0;" parent="Y6pNkMtKiFr7nWtNzLxB-19" source="Y6pNkMtKiFr7nWtNzLxB-13" edge="1">
          <mxGeometry width="50" height="50" relative="1" as="geometry">
            <mxPoint x="-130" y="-125" as="sourcePoint" />
            <mxPoint x="30" y="40" as="targetPoint" />
            <Array as="points">
              <mxPoint x="30" y="-125" />
            </Array>
          </mxGeometry>
        </mxCell>
        <mxCell id="Y6pNkMtKiFr7nWtNzLxB-21" value="" style="endArrow=classic;html=1;rounded=0;" parent="Y6pNkMtKiFr7nWtNzLxB-19" edge="1">
          <mxGeometry width="50" height="50" relative="1" as="geometry">
            <mxPoint x="30" y="10" as="sourcePoint" />
            <mxPoint x="40" y="40" as="targetPoint" />
            <Array as="points">
              <mxPoint x="40" y="10" />
            </Array>
          </mxGeometry>
        </mxCell>
        <mxCell id="Y6pNkMtKiFr7nWtNzLxB-22" value="" style="endArrow=classic;html=1;rounded=0;" parent="Y6pNkMtKiFr7nWtNzLxB-19" edge="1">
          <mxGeometry width="50" height="50" relative="1" as="geometry">
            <mxPoint x="30" y="10" as="sourcePoint" />
            <mxPoint x="20" y="40" as="targetPoint" />
            <Array as="points">
              <mxPoint x="20" y="10" />
            </Array>
          </mxGeometry>
        </mxCell>
        <mxCell id="Y6pNkMtKiFr7nWtNzLxB-23" value="" style="group;rotation=90;" parent="Y6pNkMtKiFr7nWtNzLxB-1" vertex="1" connectable="0">
          <mxGeometry x="109" y="474" width="60" height="20" as="geometry" />
        </mxCell>
        <mxCell id="Y6pNkMtKiFr7nWtNzLxB-24" value="" style="endArrow=classic;html=1;rounded=0;exitX=0.002;exitY=0.428;exitDx=0;exitDy=0;exitPerimeter=0;" parent="Y6pNkMtKiFr7nWtNzLxB-23" source="Y6pNkMtKiFr7nWtNzLxB-13" edge="1">
          <mxGeometry width="50" height="50" relative="1" as="geometry">
            <mxPoint x="30" y="-34" as="sourcePoint" />
            <mxPoint x="30" y="40" as="targetPoint" />
            <Array as="points">
              <mxPoint x="31" y="-124" />
            </Array>
          </mxGeometry>
        </mxCell>
        <mxCell id="Y6pNkMtKiFr7nWtNzLxB-25" value="" style="endArrow=classic;html=1;rounded=0;" parent="Y6pNkMtKiFr7nWtNzLxB-23" edge="1">
          <mxGeometry width="50" height="50" relative="1" as="geometry">
            <mxPoint x="30" y="10" as="sourcePoint" />
            <mxPoint x="40" y="40" as="targetPoint" />
            <Array as="points">
              <mxPoint x="40" y="10" />
            </Array>
          </mxGeometry>
        </mxCell>
        <mxCell id="Y6pNkMtKiFr7nWtNzLxB-26" value="" style="endArrow=classic;html=1;rounded=0;" parent="Y6pNkMtKiFr7nWtNzLxB-23" edge="1">
          <mxGeometry width="50" height="50" relative="1" as="geometry">
            <mxPoint x="30" y="10" as="sourcePoint" />
            <mxPoint x="20" y="40" as="targetPoint" />
            <Array as="points">
              <mxPoint x="20" y="10" />
            </Array>
          </mxGeometry>
        </mxCell>
      </root>
    </mxGraphModel>
  </diagram>
  <diagram name="GossipProject" id="29IcdD_P5gAOr92BFWHL">
    <mxGraphModel dx="1434" dy="764" grid="1" gridSize="10" guides="1" tooltips="1" connect="1" arrows="1" fold="1" page="1" pageScale="1" pageWidth="827" pageHeight="1169" math="0" shadow="0">
      <root>
        <mxCell id="NTi-UmYg__CMzd3Pkjdj-0" />
        <mxCell id="NTi-UmYg__CMzd3Pkjdj-1" parent="NTi-UmYg__CMzd3Pkjdj-0" />
        <mxCell id="NTi-UmYg__CMzd3Pkjdj-4" value="&lt;p style=&quot;margin:0px;margin-top:4px;text-align:center;&quot;&gt;&lt;b&gt;Gossip&lt;/b&gt;&lt;/p&gt;&lt;hr size=&quot;1&quot;&gt;&lt;p style=&quot;margin:0px;margin-left:4px;&quot;&gt;+&amp;nbsp; gossip_id: INTEGER [PK]&lt;br&gt;&lt;/p&gt;&lt;hr size=&quot;1&quot;&gt;&lt;p style=&quot;margin:0px;margin-left:4px;&quot;&gt;+ title: VARCHAR&lt;/p&gt;&lt;p style=&quot;margin:0px;margin-left:4px;&quot;&gt;+ content : VARCHAR&lt;br&gt;&lt;/p&gt;&lt;p style=&quot;margin:0px;margin-left:4px;&quot;&gt;+ city_id: INTEGER [FK]&lt;br&gt;&lt;/p&gt;&lt;p style=&quot;margin:0px;margin-left:4px;&quot;&gt;+ user_id: INTEGER [FK]&lt;/p&gt;" style="verticalAlign=top;align=left;overflow=fill;fontSize=12;fontFamily=Helvetica;html=1;rounded=0;shadow=0;comic=0;labelBackgroundColor=none;strokeWidth=1" parent="NTi-UmYg__CMzd3Pkjdj-1" vertex="1">
          <mxGeometry x="323" y="515" width="190" height="125" as="geometry" />
        </mxCell>
        <mxCell id="NTi-UmYg__CMzd3Pkjdj-9" value="" style="group;rotation=-180;" parent="NTi-UmYg__CMzd3Pkjdj-1" vertex="1" connectable="0">
          <mxGeometry x="513" y="575" width="60" height="20" as="geometry" />
        </mxCell>
        <mxCell id="NTi-UmYg__CMzd3Pkjdj-10" value="" style="endArrow=classic;html=1;rounded=0;exitX=0.001;exitY=0.618;exitDx=0;exitDy=0;exitPerimeter=0;" parent="NTi-UmYg__CMzd3Pkjdj-9" edge="1">
          <mxGeometry width="50" height="50" relative="1" as="geometry">
            <mxPoint x="81.19000000000005" y="9.83400000000006" as="sourcePoint" />
            <mxPoint y="10" as="targetPoint" />
          </mxGeometry>
        </mxCell>
        <mxCell id="NTi-UmYg__CMzd3Pkjdj-11" value="" style="endArrow=classic;html=1;rounded=0;" parent="NTi-UmYg__CMzd3Pkjdj-9" edge="1">
          <mxGeometry width="50" height="50" relative="1" as="geometry">
            <mxPoint x="30" y="10" as="sourcePoint" />
            <mxPoint y="20" as="targetPoint" />
            <Array as="points">
              <mxPoint x="30" y="20" />
            </Array>
          </mxGeometry>
        </mxCell>
        <mxCell id="NTi-UmYg__CMzd3Pkjdj-12" value="" style="endArrow=classic;html=1;rounded=0;" parent="NTi-UmYg__CMzd3Pkjdj-9" edge="1">
          <mxGeometry width="50" height="50" relative="1" as="geometry">
            <mxPoint x="30" y="10" as="sourcePoint" />
            <mxPoint as="targetPoint" />
            <Array as="points">
              <mxPoint x="30" />
            </Array>
          </mxGeometry>
        </mxCell>
        <mxCell id="NTi-UmYg__CMzd3Pkjdj-13" value="&lt;p style=&quot;margin:0px;margin-top:4px;text-align:center;&quot;&gt;&lt;b&gt;User&lt;/b&gt;&lt;/p&gt;&lt;hr size=&quot;1&quot;&gt;&lt;p style=&quot;margin:0px;margin-left:4px;&quot;&gt;+&amp;nbsp; user_id : INTEGER [PK]&lt;br&gt;&lt;/p&gt;&lt;hr size=&quot;1&quot;&gt;&lt;p style=&quot;margin:0px;margin-left:4px;&quot;&gt;+ first_name : VARCHAR&lt;/p&gt;&lt;p style=&quot;margin:0px;margin-left:4px;&quot;&gt;+ last_name : VARCHAR&lt;/p&gt;&lt;p style=&quot;margin:0px;margin-left:4px;&quot;&gt;+ description : TEXT&lt;br&gt;&lt;/p&gt;&lt;p style=&quot;margin:0px;margin-left:4px;&quot;&gt;+ email: VARCHAR&lt;br&gt;&lt;/p&gt;&lt;p style=&quot;margin:0px;margin-left:4px;&quot;&gt;+ age: INTEGER&lt;/p&gt;" style="verticalAlign=top;align=left;overflow=fill;fontSize=12;fontFamily=Helvetica;html=1;rounded=0;shadow=0;comic=0;labelBackgroundColor=none;strokeWidth=1" parent="NTi-UmYg__CMzd3Pkjdj-1" vertex="1">
          <mxGeometry x="323" y="290" width="190" height="140" as="geometry" />
        </mxCell>
        <mxCell id="NTi-UmYg__CMzd3Pkjdj-14" value="&lt;p style=&quot;margin:0px;margin-top:4px;text-align:center;&quot;&gt;&lt;b&gt;Association table user/mp&lt;/b&gt;&lt;/p&gt;&lt;hr size=&quot;1&quot;&gt;&lt;p style=&quot;margin:0px;margin-left:4px;&quot;&gt;+ user_id: INTEGER [PK][FK]&lt;br&gt;&lt;/p&gt;&lt;p style=&quot;margin:0px;margin-left:4px;&quot;&gt;+ mp_id: INTEGER [PK][FK]&lt;br&gt;&lt;/p&gt;&lt;hr size=&quot;1&quot;&gt;&lt;p style=&quot;margin:0px;margin-left:4px;&quot;&gt;&lt;span style=&quot;background-color: initial;&quot;&gt;+ receiver_id: INTEGER&lt;/span&gt;&lt;br&gt;&lt;/p&gt;&lt;p style=&quot;margin:0px;margin-left:4px;&quot;&gt;+ sender_id : INTEGER&lt;/p&gt;" style="verticalAlign=top;align=left;overflow=fill;fontSize=12;fontFamily=Helvetica;html=1;rounded=0;shadow=0;comic=0;labelBackgroundColor=none;strokeWidth=1" parent="NTi-UmYg__CMzd3Pkjdj-1" vertex="1">
          <mxGeometry x="44" y="514" width="190" height="136" as="geometry" />
        </mxCell>
        <mxCell id="NTi-UmYg__CMzd3Pkjdj-15" value="" style="group;rotation=90;" parent="NTi-UmYg__CMzd3Pkjdj-1" vertex="1" connectable="0">
          <mxGeometry x="384" y="474" width="60" height="20" as="geometry" />
        </mxCell>
        <mxCell id="NTi-UmYg__CMzd3Pkjdj-16" value="" style="endArrow=classic;html=1;rounded=0;exitX=0.478;exitY=1;exitDx=0;exitDy=0;exitPerimeter=0;" parent="NTi-UmYg__CMzd3Pkjdj-15" source="NTi-UmYg__CMzd3Pkjdj-13" edge="1">
          <mxGeometry width="50" height="50" relative="1" as="geometry">
            <mxPoint x="30" y="-34" as="sourcePoint" />
            <mxPoint x="30" y="40" as="targetPoint" />
          </mxGeometry>
        </mxCell>
        <mxCell id="NTi-UmYg__CMzd3Pkjdj-17" value="" style="endArrow=classic;html=1;rounded=0;" parent="NTi-UmYg__CMzd3Pkjdj-15" edge="1">
          <mxGeometry width="50" height="50" relative="1" as="geometry">
            <mxPoint x="30" y="10" as="sourcePoint" />
            <mxPoint x="40" y="40" as="targetPoint" />
            <Array as="points">
              <mxPoint x="40" y="10" />
            </Array>
          </mxGeometry>
        </mxCell>
        <mxCell id="NTi-UmYg__CMzd3Pkjdj-18" value="" style="endArrow=classic;html=1;rounded=0;" parent="NTi-UmYg__CMzd3Pkjdj-15" edge="1">
          <mxGeometry width="50" height="50" relative="1" as="geometry">
            <mxPoint x="30" y="10" as="sourcePoint" />
            <mxPoint x="20" y="40" as="targetPoint" />
            <Array as="points">
              <mxPoint x="20" y="10" />
            </Array>
          </mxGeometry>
        </mxCell>
        <mxCell id="NTi-UmYg__CMzd3Pkjdj-23" value="" style="group;rotation=90;" parent="NTi-UmYg__CMzd3Pkjdj-1" vertex="1" connectable="0">
          <mxGeometry x="109" y="474" width="60" height="20" as="geometry" />
        </mxCell>
        <mxCell id="NTi-UmYg__CMzd3Pkjdj-24" value="" style="endArrow=classic;html=1;rounded=0;exitX=0.002;exitY=0.428;exitDx=0;exitDy=0;exitPerimeter=0;" parent="NTi-UmYg__CMzd3Pkjdj-23" source="NTi-UmYg__CMzd3Pkjdj-13" edge="1">
          <mxGeometry width="50" height="50" relative="1" as="geometry">
            <mxPoint x="30" y="-34" as="sourcePoint" />
            <mxPoint x="30" y="40" as="targetPoint" />
            <Array as="points">
              <mxPoint x="31" y="-124" />
            </Array>
          </mxGeometry>
        </mxCell>
        <mxCell id="NTi-UmYg__CMzd3Pkjdj-25" value="" style="endArrow=classic;html=1;rounded=0;" parent="NTi-UmYg__CMzd3Pkjdj-23" edge="1">
          <mxGeometry width="50" height="50" relative="1" as="geometry">
            <mxPoint x="30" y="10" as="sourcePoint" />
            <mxPoint x="40" y="40" as="targetPoint" />
            <Array as="points">
              <mxPoint x="40" y="10" />
            </Array>
          </mxGeometry>
        </mxCell>
        <mxCell id="NTi-UmYg__CMzd3Pkjdj-26" value="" style="endArrow=classic;html=1;rounded=0;" parent="NTi-UmYg__CMzd3Pkjdj-23" edge="1">
          <mxGeometry width="50" height="50" relative="1" as="geometry">
            <mxPoint x="30" y="10" as="sourcePoint" />
            <mxPoint x="20" y="40" as="targetPoint" />
            <Array as="points">
              <mxPoint x="20" y="10" />
            </Array>
          </mxGeometry>
        </mxCell>
        <mxCell id="NTi-UmYg__CMzd3Pkjdj-31" value="&lt;p style=&quot;margin:0px;margin-top:4px;text-align:center;&quot;&gt;&lt;b&gt;PrivateMessage&lt;/b&gt;&lt;/p&gt;&lt;hr size=&quot;1&quot;&gt;&lt;p style=&quot;margin:0px;margin-left:4px;&quot;&gt;+ mp_id: INTEGER [PK]&lt;br&gt;&lt;/p&gt;&lt;hr size=&quot;1&quot;&gt;&lt;p style=&quot;margin:0px;margin-left:4px;&quot;&gt;+ content: TEXT&amp;nbsp;&lt;/p&gt;" style="verticalAlign=top;align=left;overflow=fill;fontSize=12;fontFamily=Helvetica;html=1;rounded=0;shadow=0;comic=0;labelBackgroundColor=none;strokeWidth=1" parent="NTi-UmYg__CMzd3Pkjdj-1" vertex="1">
          <mxGeometry x="44" y="718" width="190" height="80" as="geometry" />
        </mxCell>
        <mxCell id="NTi-UmYg__CMzd3Pkjdj-32" value="" style="group;rotation=-90;" parent="NTi-UmYg__CMzd3Pkjdj-1" vertex="1" connectable="0">
          <mxGeometry x="110.5" y="675.5" width="60" height="20" as="geometry" />
        </mxCell>
        <mxCell id="NTi-UmYg__CMzd3Pkjdj-33" value="" style="endArrow=classic;html=1;rounded=0;" parent="NTi-UmYg__CMzd3Pkjdj-32" edge="1">
          <mxGeometry width="50" height="50" relative="1" as="geometry">
            <mxPoint x="30.508474576271183" y="42" as="sourcePoint" />
            <mxPoint x="30.508474576271183" y="-20" as="targetPoint" />
            <Array as="points" />
          </mxGeometry>
        </mxCell>
        <mxCell id="NTi-UmYg__CMzd3Pkjdj-34" value="" style="endArrow=classic;html=1;rounded=0;" parent="NTi-UmYg__CMzd3Pkjdj-32" edge="1">
          <mxGeometry width="50" height="50" relative="1" as="geometry">
            <mxPoint x="30.508474576271183" y="10" as="sourcePoint" />
            <mxPoint x="21.35593220338983" y="-20" as="targetPoint" />
            <Array as="points">
              <mxPoint x="21.35593220338983" y="10" />
            </Array>
          </mxGeometry>
        </mxCell>
        <mxCell id="NTi-UmYg__CMzd3Pkjdj-35" value="" style="endArrow=classic;html=1;rounded=0;" parent="NTi-UmYg__CMzd3Pkjdj-32" edge="1">
          <mxGeometry width="50" height="50" relative="1" as="geometry">
            <mxPoint x="30.508474576271183" y="10" as="sourcePoint" />
            <mxPoint x="40.67796610169491" y="-20" as="targetPoint" />
            <Array as="points">
              <mxPoint x="40.67796610169491" y="10" />
            </Array>
          </mxGeometry>
        </mxCell>
        <mxCell id="frltPX7CxcbBPfvLJAZR-10" value="&lt;p style=&quot;margin:0px;margin-top:4px;text-align:center;&quot;&gt;&lt;b&gt;Association table gossip/tags&lt;/b&gt;&lt;/p&gt;&lt;hr size=&quot;1&quot;&gt;&lt;p style=&quot;margin:0px;margin-left:4px;&quot;&gt;+ gossip_id: INTEGER [PK][FK]&lt;br&gt;&lt;/p&gt;&lt;hr size=&quot;1&quot;&gt;&lt;p style=&quot;margin:0px;margin-left:4px;&quot;&gt;+ tags_id: INTEGER [PK][FK]&lt;/p&gt;" style="verticalAlign=top;align=left;overflow=fill;fontSize=12;fontFamily=Helvetica;html=1;rounded=0;shadow=0;comic=0;labelBackgroundColor=none;strokeWidth=1" parent="NTi-UmYg__CMzd3Pkjdj-1" vertex="1">
          <mxGeometry x="330" y="701.5" width="190" height="80" as="geometry" />
        </mxCell>
        <mxCell id="frltPX7CxcbBPfvLJAZR-11" value="" style="group;rotation=90;" parent="NTi-UmYg__CMzd3Pkjdj-1" vertex="1" connectable="0">
          <mxGeometry x="395.5" y="660" width="59" height="20" as="geometry" />
        </mxCell>
        <mxCell id="frltPX7CxcbBPfvLJAZR-12" value="" style="endArrow=classic;html=1;rounded=0;" parent="frltPX7CxcbBPfvLJAZR-11" edge="1">
          <mxGeometry width="50" height="50" relative="1" as="geometry">
            <mxPoint x="28.5" y="-20.5" as="sourcePoint" />
            <mxPoint x="28.516666666666666" y="41" as="targetPoint" />
            <Array as="points" />
          </mxGeometry>
        </mxCell>
        <mxCell id="frltPX7CxcbBPfvLJAZR-13" value="" style="endArrow=classic;html=1;rounded=0;" parent="frltPX7CxcbBPfvLJAZR-11" edge="1">
          <mxGeometry width="50" height="50" relative="1" as="geometry">
            <mxPoint x="28.516666666666666" y="11" as="sourcePoint" />
            <mxPoint x="38.35" y="41" as="targetPoint" />
            <Array as="points">
              <mxPoint x="38.35" y="11" />
            </Array>
          </mxGeometry>
        </mxCell>
        <mxCell id="frltPX7CxcbBPfvLJAZR-14" value="" style="endArrow=classic;html=1;rounded=0;" parent="frltPX7CxcbBPfvLJAZR-11" edge="1">
          <mxGeometry width="50" height="50" relative="1" as="geometry">
            <mxPoint x="28.516666666666666" y="11" as="sourcePoint" />
            <mxPoint x="18.683333333333334" y="41" as="targetPoint" />
            <Array as="points">
              <mxPoint x="18.683333333333334" y="11" />
            </Array>
          </mxGeometry>
        </mxCell>
        <mxCell id="frltPX7CxcbBPfvLJAZR-15" value="&lt;p style=&quot;margin:0px;margin-top:4px;text-align:center;&quot;&gt;&lt;b&gt;Tags&lt;/b&gt;&lt;/p&gt;&lt;hr size=&quot;1&quot;&gt;&lt;p style=&quot;margin:0px;margin-left:4px;&quot;&gt;+ tags_id: INTEGER [PK]&lt;br&gt;&lt;/p&gt;&lt;hr size=&quot;1&quot;&gt;&lt;p style=&quot;margin:0px;margin-left:4px;&quot;&gt;+ title: VARCHAR&amp;nbsp;&lt;/p&gt;" style="verticalAlign=top;align=left;overflow=fill;fontSize=12;fontFamily=Helvetica;html=1;rounded=0;shadow=0;comic=0;labelBackgroundColor=none;strokeWidth=1" parent="NTi-UmYg__CMzd3Pkjdj-1" vertex="1">
          <mxGeometry x="330" y="845.5" width="190" height="80" as="geometry" />
        </mxCell>
        <mxCell id="frltPX7CxcbBPfvLJAZR-16" value="" style="group;rotation=-90;" parent="NTi-UmYg__CMzd3Pkjdj-1" vertex="1" connectable="0">
          <mxGeometry x="393" y="802" width="60" height="20" as="geometry" />
        </mxCell>
        <mxCell id="frltPX7CxcbBPfvLJAZR-17" value="" style="endArrow=classic;html=1;rounded=0;" parent="frltPX7CxcbBPfvLJAZR-16" edge="1">
          <mxGeometry width="50" height="50" relative="1" as="geometry">
            <mxPoint x="30.508474576271183" y="42" as="sourcePoint" />
            <mxPoint x="30.508474576271183" y="-20" as="targetPoint" />
            <Array as="points" />
          </mxGeometry>
        </mxCell>
        <mxCell id="frltPX7CxcbBPfvLJAZR-18" value="" style="endArrow=classic;html=1;rounded=0;" parent="frltPX7CxcbBPfvLJAZR-16" edge="1">
          <mxGeometry width="50" height="50" relative="1" as="geometry">
            <mxPoint x="30.508474576271183" y="10" as="sourcePoint" />
            <mxPoint x="21.35593220338983" y="-20" as="targetPoint" />
            <Array as="points">
              <mxPoint x="21.35593220338983" y="10" />
            </Array>
          </mxGeometry>
        </mxCell>
        <mxCell id="frltPX7CxcbBPfvLJAZR-19" value="" style="endArrow=classic;html=1;rounded=0;" parent="frltPX7CxcbBPfvLJAZR-16" edge="1">
          <mxGeometry width="50" height="50" relative="1" as="geometry">
            <mxPoint x="30.508474576271183" y="10" as="sourcePoint" />
            <mxPoint x="40.67796610169491" y="-20" as="targetPoint" />
            <Array as="points">
              <mxPoint x="40.67796610169491" y="10" />
            </Array>
          </mxGeometry>
        </mxCell>
        <mxCell id="frltPX7CxcbBPfvLJAZR-20" value="&lt;p style=&quot;margin:0px;margin-top:4px;text-align:center;&quot;&gt;&lt;b&gt;City&lt;/b&gt;&lt;/p&gt;&lt;hr size=&quot;1&quot;&gt;&lt;p style=&quot;margin:0px;margin-left:4px;&quot;&gt;+&amp;nbsp; city_id [PK]&lt;br&gt;&lt;/p&gt;&lt;hr size=&quot;1&quot;&gt;&lt;p style=&quot;margin:0px;margin-left:4px;&quot;&gt;+ name: VARCHAR&lt;/p&gt;&lt;p style=&quot;margin:0px;margin-left:4px;&quot;&gt;+ zip_code : INTEGER&lt;/p&gt;&lt;p style=&quot;margin:0px;margin-left:4px;&quot;&gt;&lt;br&gt;&lt;/p&gt;" style="verticalAlign=top;align=left;overflow=fill;fontSize=12;fontFamily=Helvetica;html=1;rounded=0;shadow=0;comic=0;labelBackgroundColor=none;strokeWidth=1" parent="NTi-UmYg__CMzd3Pkjdj-1" vertex="1">
          <mxGeometry x="595" y="515" width="190" height="95" as="geometry" />
        </mxCell>
      </root>
    </mxGraphModel>
  </diagram>
  <diagram name="Template" id="c4acf3e9-155e-7222-9cf6-157b1a14988f">
    <mxGraphModel dx="1434" dy="707" grid="1" gridSize="10" guides="1" tooltips="1" connect="1" arrows="1" fold="1" page="1" pageScale="1" pageWidth="850" pageHeight="1100" background="none" math="0" shadow="0">
      <root>
        <mxCell id="0" />
        <mxCell id="1" parent="0" />
        <mxCell id="17acba5748e5396b-1" value="frame" style="shape=umlFrame;whiteSpace=wrap;html=1;rounded=0;shadow=0;comic=0;labelBackgroundColor=none;strokeWidth=1;fontFamily=Verdana;fontSize=10;align=center;" parent="1" vertex="1">
          <mxGeometry x="20" y="20" width="820" height="1060" as="geometry" />
        </mxCell>
        <mxCell id="5d2195bd80daf111-38" style="edgeStyle=orthogonalEdgeStyle;rounded=0;html=1;dashed=1;labelBackgroundColor=none;startFill=0;endArrow=open;endFill=0;endSize=10;fontFamily=Verdana;fontSize=10;" parent="1" source="17acba5748e5396b-2" target="5d2195bd80daf111-9" edge="1">
          <mxGeometry relative="1" as="geometry">
            <Array as="points">
              <mxPoint x="590" y="721" />
            </Array>
          </mxGeometry>
        </mxCell>
        <mxCell id="5d2195bd80daf111-40" style="edgeStyle=orthogonalEdgeStyle;rounded=0;html=1;dashed=1;labelBackgroundColor=none;startFill=0;endArrow=open;endFill=0;endSize=10;fontFamily=Verdana;fontSize=10;" parent="1" source="17acba5748e5396b-2" target="5d2195bd80daf111-1" edge="1">
          <mxGeometry relative="1" as="geometry">
            <Array as="points" />
          </mxGeometry>
        </mxCell>
        <mxCell id="17acba5748e5396b-2" value="Classname" style="swimlane;html=1;fontStyle=0;childLayout=stackLayout;horizontal=1;startSize=26;fillColor=none;horizontalStack=0;resizeParent=1;resizeLast=0;collapsible=1;marginBottom=0;swimlaneFillColor=#ffffff;rounded=0;shadow=0;comic=0;labelBackgroundColor=none;strokeWidth=1;fontFamily=Verdana;fontSize=10;align=center;" parent="1" vertex="1">
          <mxGeometry x="650" y="628" width="160" height="186" as="geometry" />
        </mxCell>
        <mxCell id="17acba5748e5396b-3" value="+ field: type" style="text;html=1;strokeColor=none;fillColor=none;align=left;verticalAlign=top;spacingLeft=4;spacingRight=4;whiteSpace=wrap;overflow=hidden;rotatable=0;points=[[0,0.5],[1,0.5]];portConstraint=eastwest;" parent="17acba5748e5396b-2" vertex="1">
          <mxGeometry y="26" width="160" height="26" as="geometry" />
        </mxCell>
        <mxCell id="17acba5748e5396b-4" value="+ field: type" style="text;html=1;strokeColor=none;fillColor=none;align=left;verticalAlign=top;spacingLeft=4;spacingRight=4;whiteSpace=wrap;overflow=hidden;rotatable=0;points=[[0,0.5],[1,0.5]];portConstraint=eastwest;" parent="17acba5748e5396b-2" vertex="1">
          <mxGeometry y="52" width="160" height="26" as="geometry" />
        </mxCell>
        <mxCell id="17acba5748e5396b-6" value="+ field: type" style="text;html=1;strokeColor=none;fillColor=none;align=left;verticalAlign=top;spacingLeft=4;spacingRight=4;whiteSpace=wrap;overflow=hidden;rotatable=0;points=[[0,0.5],[1,0.5]];portConstraint=eastwest;" parent="17acba5748e5396b-2" vertex="1">
          <mxGeometry y="78" width="160" height="26" as="geometry" />
        </mxCell>
        <mxCell id="17acba5748e5396b-9" value="+ field: type" style="text;html=1;strokeColor=none;fillColor=none;align=left;verticalAlign=top;spacingLeft=4;spacingRight=4;whiteSpace=wrap;overflow=hidden;rotatable=0;points=[[0,0.5],[1,0.5]];portConstraint=eastwest;" parent="17acba5748e5396b-2" vertex="1">
          <mxGeometry y="104" width="160" height="26" as="geometry" />
        </mxCell>
        <mxCell id="17acba5748e5396b-10" value="+ field: type" style="text;html=1;strokeColor=none;fillColor=none;align=left;verticalAlign=top;spacingLeft=4;spacingRight=4;whiteSpace=wrap;overflow=hidden;rotatable=0;points=[[0,0.5],[1,0.5]];portConstraint=eastwest;" parent="17acba5748e5396b-2" vertex="1">
          <mxGeometry y="130" width="160" height="26" as="geometry" />
        </mxCell>
        <mxCell id="17acba5748e5396b-8" value="+ field: type" style="text;html=1;strokeColor=none;fillColor=none;align=left;verticalAlign=top;spacingLeft=4;spacingRight=4;whiteSpace=wrap;overflow=hidden;rotatable=0;points=[[0,0.5],[1,0.5]];portConstraint=eastwest;" parent="17acba5748e5396b-2" vertex="1">
          <mxGeometry y="156" width="160" height="26" as="geometry" />
        </mxCell>
        <mxCell id="17acba5748e5396b-20" value="Classname" style="swimlane;html=1;fontStyle=0;childLayout=stackLayout;horizontal=1;startSize=26;fillColor=none;horizontalStack=0;resizeParent=1;resizeLast=0;collapsible=1;marginBottom=0;swimlaneFillColor=#ffffff;rounded=0;shadow=0;comic=0;labelBackgroundColor=none;strokeWidth=1;fontFamily=Verdana;fontSize=10;align=center;" parent="1" vertex="1">
          <mxGeometry x="350" y="42" width="160" height="110" as="geometry" />
        </mxCell>
        <mxCell id="17acba5748e5396b-21" value="+ field: type" style="text;html=1;strokeColor=none;fillColor=none;align=left;verticalAlign=top;spacingLeft=4;spacingRight=4;whiteSpace=wrap;overflow=hidden;rotatable=0;points=[[0,0.5],[1,0.5]];portConstraint=eastwest;" parent="17acba5748e5396b-20" vertex="1">
          <mxGeometry y="26" width="160" height="26" as="geometry" />
        </mxCell>
        <mxCell id="17acba5748e5396b-24" value="+ field: type" style="text;html=1;strokeColor=none;fillColor=none;align=left;verticalAlign=top;spacingLeft=4;spacingRight=4;whiteSpace=wrap;overflow=hidden;rotatable=0;points=[[0,0.5],[1,0.5]];portConstraint=eastwest;" parent="17acba5748e5396b-20" vertex="1">
          <mxGeometry y="52" width="160" height="26" as="geometry" />
        </mxCell>
        <mxCell id="17acba5748e5396b-26" value="+ field: type" style="text;html=1;strokeColor=none;fillColor=none;align=left;verticalAlign=top;spacingLeft=4;spacingRight=4;whiteSpace=wrap;overflow=hidden;rotatable=0;points=[[0,0.5],[1,0.5]];portConstraint=eastwest;" parent="17acba5748e5396b-20" vertex="1">
          <mxGeometry y="78" width="160" height="26" as="geometry" />
        </mxCell>
        <mxCell id="17acba5748e5396b-30" value="Classname" style="swimlane;html=1;fontStyle=0;childLayout=stackLayout;horizontal=1;startSize=26;fillColor=none;horizontalStack=0;resizeParent=1;resizeLast=0;collapsible=1;marginBottom=0;swimlaneFillColor=#ffffff;rounded=0;shadow=0;comic=0;labelBackgroundColor=none;strokeWidth=1;fontFamily=Verdana;fontSize=10;align=center;" parent="1" vertex="1">
          <mxGeometry x="580" y="87" width="160" height="110" as="geometry" />
        </mxCell>
        <mxCell id="17acba5748e5396b-31" value="+ field: type" style="text;html=1;strokeColor=none;fillColor=none;align=left;verticalAlign=top;spacingLeft=4;spacingRight=4;whiteSpace=wrap;overflow=hidden;rotatable=0;points=[[0,0.5],[1,0.5]];portConstraint=eastwest;" parent="17acba5748e5396b-30" vertex="1">
          <mxGeometry y="26" width="160" height="26" as="geometry" />
        </mxCell>
        <mxCell id="17acba5748e5396b-32" value="+ field: type" style="text;html=1;strokeColor=none;fillColor=none;align=left;verticalAlign=top;spacingLeft=4;spacingRight=4;whiteSpace=wrap;overflow=hidden;rotatable=0;points=[[0,0.5],[1,0.5]];portConstraint=eastwest;" parent="17acba5748e5396b-30" vertex="1">
          <mxGeometry y="52" width="160" height="26" as="geometry" />
        </mxCell>
        <mxCell id="17acba5748e5396b-33" value="+ field: type" style="text;html=1;strokeColor=none;fillColor=none;align=left;verticalAlign=top;spacingLeft=4;spacingRight=4;whiteSpace=wrap;overflow=hidden;rotatable=0;points=[[0,0.5],[1,0.5]];portConstraint=eastwest;" parent="17acba5748e5396b-30" vertex="1">
          <mxGeometry y="78" width="160" height="26" as="geometry" />
        </mxCell>
        <mxCell id="17acba5748e5396b-44" value="Classname" style="swimlane;html=1;fontStyle=0;childLayout=stackLayout;horizontal=1;startSize=26;fillColor=none;horizontalStack=0;resizeParent=1;resizeLast=0;collapsible=1;marginBottom=0;swimlaneFillColor=#ffffff;rounded=0;shadow=0;comic=0;labelBackgroundColor=none;strokeWidth=1;fontFamily=Verdana;fontSize=10;align=center;" parent="1" vertex="1">
          <mxGeometry x="650" y="978" width="160" height="83" as="geometry" />
        </mxCell>
        <mxCell id="17acba5748e5396b-45" value="+ field: type" style="text;html=1;strokeColor=none;fillColor=none;align=left;verticalAlign=top;spacingLeft=4;spacingRight=4;whiteSpace=wrap;overflow=hidden;rotatable=0;points=[[0,0.5],[1,0.5]];portConstraint=eastwest;" parent="17acba5748e5396b-44" vertex="1">
          <mxGeometry y="26" width="160" height="26" as="geometry" />
        </mxCell>
        <mxCell id="17acba5748e5396b-47" value="+ field: type" style="text;html=1;strokeColor=none;fillColor=none;align=left;verticalAlign=top;spacingLeft=4;spacingRight=4;whiteSpace=wrap;overflow=hidden;rotatable=0;points=[[0,0.5],[1,0.5]];portConstraint=eastwest;" parent="17acba5748e5396b-44" vertex="1">
          <mxGeometry y="52" width="160" height="26" as="geometry" />
        </mxCell>
        <mxCell id="5d2195bd80daf111-39" style="edgeStyle=orthogonalEdgeStyle;rounded=0;html=1;dashed=1;labelBackgroundColor=none;startFill=0;endArrow=open;endFill=0;endSize=10;fontFamily=Verdana;fontSize=10;" parent="1" source="5d2195bd80daf111-1" target="17acba5748e5396b-44" edge="1">
          <mxGeometry relative="1" as="geometry" />
        </mxCell>
        <mxCell id="5d2195bd80daf111-1" value="Classname" style="swimlane;html=1;fontStyle=0;childLayout=stackLayout;horizontal=1;startSize=26;fillColor=none;horizontalStack=0;resizeParent=1;resizeLast=0;collapsible=1;marginBottom=0;swimlaneFillColor=#ffffff;rounded=0;shadow=0;comic=0;labelBackgroundColor=none;strokeWidth=1;fontFamily=Verdana;fontSize=10;align=center;" parent="1" vertex="1">
          <mxGeometry x="650" y="838" width="160" height="110" as="geometry" />
        </mxCell>
        <mxCell id="5d2195bd80daf111-2" value="+ field: type" style="text;html=1;strokeColor=none;fillColor=none;align=left;verticalAlign=top;spacingLeft=4;spacingRight=4;whiteSpace=wrap;overflow=hidden;rotatable=0;points=[[0,0.5],[1,0.5]];portConstraint=eastwest;" parent="5d2195bd80daf111-1" vertex="1">
          <mxGeometry y="26" width="160" height="26" as="geometry" />
        </mxCell>
        <mxCell id="5d2195bd80daf111-3" value="+ field: type" style="text;html=1;strokeColor=none;fillColor=none;align=left;verticalAlign=top;spacingLeft=4;spacingRight=4;whiteSpace=wrap;overflow=hidden;rotatable=0;points=[[0,0.5],[1,0.5]];portConstraint=eastwest;" parent="5d2195bd80daf111-1" vertex="1">
          <mxGeometry y="52" width="160" height="26" as="geometry" />
        </mxCell>
        <mxCell id="5d2195bd80daf111-4" value="+ field: type" style="text;html=1;strokeColor=none;fillColor=none;align=left;verticalAlign=top;spacingLeft=4;spacingRight=4;whiteSpace=wrap;overflow=hidden;rotatable=0;points=[[0,0.5],[1,0.5]];portConstraint=eastwest;" parent="5d2195bd80daf111-1" vertex="1">
          <mxGeometry y="78" width="160" height="26" as="geometry" />
        </mxCell>
        <mxCell id="5d2195bd80daf111-41" style="edgeStyle=orthogonalEdgeStyle;rounded=0;html=1;dashed=1;labelBackgroundColor=none;startFill=0;endArrow=open;endFill=0;endSize=10;fontFamily=Verdana;fontSize=10;" parent="1" source="5d2195bd80daf111-5" target="17acba5748e5396b-2" edge="1">
          <mxGeometry relative="1" as="geometry">
            <Array as="points" />
          </mxGeometry>
        </mxCell>
        <mxCell id="5d2195bd80daf111-5" value="Classname" style="swimlane;html=1;fontStyle=0;childLayout=stackLayout;horizontal=1;startSize=26;fillColor=none;horizontalStack=0;resizeParent=1;resizeLast=0;collapsible=1;marginBottom=0;swimlaneFillColor=#ffffff;rounded=0;shadow=0;comic=0;labelBackgroundColor=none;strokeWidth=1;fontFamily=Verdana;fontSize=10;align=center;" parent="1" vertex="1">
          <mxGeometry x="650" y="520" width="160" height="83" as="geometry" />
        </mxCell>
        <mxCell id="5d2195bd80daf111-6" value="+ field: type" style="text;html=1;strokeColor=none;fillColor=none;align=left;verticalAlign=top;spacingLeft=4;spacingRight=4;whiteSpace=wrap;overflow=hidden;rotatable=0;points=[[0,0.5],[1,0.5]];portConstraint=eastwest;" parent="5d2195bd80daf111-5" vertex="1">
          <mxGeometry y="26" width="160" height="26" as="geometry" />
        </mxCell>
        <mxCell id="5d2195bd80daf111-7" value="+ field: type" style="text;html=1;strokeColor=none;fillColor=none;align=left;verticalAlign=top;spacingLeft=4;spacingRight=4;whiteSpace=wrap;overflow=hidden;rotatable=0;points=[[0,0.5],[1,0.5]];portConstraint=eastwest;" parent="5d2195bd80daf111-5" vertex="1">
          <mxGeometry y="52" width="160" height="26" as="geometry" />
        </mxCell>
        <mxCell id="5d2195bd80daf111-8" value="&amp;laquo;interface&amp;raquo;&lt;br&gt;&lt;b&gt;Name&lt;/b&gt;" style="html=1;rounded=0;shadow=0;comic=0;labelBackgroundColor=none;strokeWidth=1;fontFamily=Verdana;fontSize=10;align=center;" parent="1" vertex="1">
          <mxGeometry x="490" y="1004" width="110" height="50" as="geometry" />
        </mxCell>
        <mxCell id="5d2195bd80daf111-35" style="edgeStyle=orthogonalEdgeStyle;rounded=0;html=1;dashed=1;labelBackgroundColor=none;startFill=0;endArrow=open;endFill=0;endSize=10;fontFamily=Verdana;fontSize=10;" parent="1" source="5d2195bd80daf111-9" target="5d2195bd80daf111-8" edge="1">
          <mxGeometry relative="1" as="geometry">
            <Array as="points">
              <mxPoint x="545" y="970" />
              <mxPoint x="545" y="970" />
            </Array>
          </mxGeometry>
        </mxCell>
        <mxCell id="5d2195bd80daf111-36" style="edgeStyle=orthogonalEdgeStyle;rounded=0;html=1;dashed=1;labelBackgroundColor=none;startFill=0;endArrow=open;endFill=0;endSize=10;fontFamily=Verdana;fontSize=10;" parent="1" source="5d2195bd80daf111-9" target="5d2195bd80daf111-13" edge="1">
          <mxGeometry relative="1" as="geometry">
            <Array as="points">
              <mxPoint x="550" y="520" />
            </Array>
          </mxGeometry>
        </mxCell>
        <mxCell id="5d2195bd80daf111-9" value="&lt;p style=&quot;margin:0px;margin-top:4px;text-align:center;&quot;&gt;&lt;i&gt;&amp;lt;&amp;lt;Interface&amp;gt;&amp;gt;&lt;/i&gt;&lt;br/&gt;&lt;b&gt;Interface&lt;/b&gt;&lt;/p&gt;&lt;hr size=&quot;1&quot;/&gt;&lt;p style=&quot;margin:0px;margin-left:4px;&quot;&gt;+ field1: Type&lt;br/&gt;+ field2: Type&lt;/p&gt;&lt;hr size=&quot;1&quot;/&gt;&lt;p style=&quot;margin:0px;margin-left:4px;&quot;&gt;+ method1(Type): Type&lt;br/&gt;+ method2(Type, Type): Type&lt;/p&gt;" style="verticalAlign=top;align=left;overflow=fill;fontSize=12;fontFamily=Helvetica;html=1;rounded=0;shadow=0;comic=0;labelBackgroundColor=none;strokeWidth=1" parent="1" vertex="1">
          <mxGeometry x="415" y="823" width="190" height="140" as="geometry" />
        </mxCell>
        <mxCell id="5d2195bd80daf111-10" value="&lt;p style=&quot;margin:0px;margin-top:4px;text-align:center;&quot;&gt;&lt;i&gt;&amp;lt;&amp;lt;Interface&amp;gt;&amp;gt;&lt;/i&gt;&lt;br/&gt;&lt;b&gt;Interface&lt;/b&gt;&lt;/p&gt;&lt;hr size=&quot;1&quot;/&gt;&lt;p style=&quot;margin:0px;margin-left:4px;&quot;&gt;+ field1: Type&lt;br/&gt;+ field2: Type&lt;/p&gt;&lt;hr size=&quot;1&quot;/&gt;&lt;p style=&quot;margin:0px;margin-left:4px;&quot;&gt;+ method1(Type): Type&lt;br/&gt;+ method2(Type, Type): Type&lt;/p&gt;" style="verticalAlign=top;align=left;overflow=fill;fontSize=12;fontFamily=Helvetica;html=1;rounded=0;shadow=0;comic=0;labelBackgroundColor=none;strokeWidth=1" parent="1" vertex="1">
          <mxGeometry x="350" y="572" width="190" height="140" as="geometry" />
        </mxCell>
        <mxCell id="5d2195bd80daf111-34" style="edgeStyle=orthogonalEdgeStyle;rounded=0;html=1;dashed=1;labelBackgroundColor=none;startFill=0;endArrow=open;endFill=0;endSize=10;fontFamily=Verdana;fontSize=10;" parent="1" source="5d2195bd80daf111-11" target="5d2195bd80daf111-8" edge="1">
          <mxGeometry relative="1" as="geometry">
            <Array as="points">
              <mxPoint x="410" y="1029" />
              <mxPoint x="410" y="1029" />
            </Array>
          </mxGeometry>
        </mxCell>
        <mxCell id="5d2195bd80daf111-11" value="&lt;p style=&quot;margin:0px;margin-top:4px;text-align:center;&quot;&gt;&lt;i&gt;&amp;lt;&amp;lt;Interface&amp;gt;&amp;gt;&lt;/i&gt;&lt;br/&gt;&lt;b&gt;Interface&lt;/b&gt;&lt;/p&gt;&lt;hr size=&quot;1&quot;/&gt;&lt;p style=&quot;margin:0px;margin-left:4px;&quot;&gt;+ field1: Type&lt;br/&gt;+ field2: Type&lt;/p&gt;&lt;hr size=&quot;1&quot;/&gt;&lt;p style=&quot;margin:0px;margin-left:4px;&quot;&gt;+ method1(Type): Type&lt;br/&gt;+ method2(Type, Type): Type&lt;/p&gt;" style="verticalAlign=top;align=left;overflow=fill;fontSize=12;fontFamily=Helvetica;html=1;rounded=0;shadow=0;comic=0;labelBackgroundColor=none;strokeWidth=1" parent="1" vertex="1">
          <mxGeometry x="190" y="908" width="190" height="140" as="geometry" />
        </mxCell>
        <mxCell id="5d2195bd80daf111-12" value="&lt;p style=&quot;margin:0px;margin-top:4px;text-align:center;&quot;&gt;&lt;i&gt;&amp;lt;&amp;lt;Interface&amp;gt;&amp;gt;&lt;/i&gt;&lt;br/&gt;&lt;b&gt;Interface&lt;/b&gt;&lt;/p&gt;&lt;hr size=&quot;1&quot;/&gt;&lt;p style=&quot;margin:0px;margin-left:4px;&quot;&gt;+ field1: Type&lt;br/&gt;+ field2: Type&lt;/p&gt;&lt;hr size=&quot;1&quot;/&gt;&lt;p style=&quot;margin:0px;margin-left:4px;&quot;&gt;+ method1(Type): Type&lt;br/&gt;+ method2(Type, Type): Type&lt;/p&gt;" style="verticalAlign=top;align=left;overflow=fill;fontSize=12;fontFamily=Helvetica;html=1;rounded=0;shadow=0;comic=0;labelBackgroundColor=none;strokeWidth=1" parent="1" vertex="1">
          <mxGeometry x="190" y="744" width="190" height="140" as="geometry" />
        </mxCell>
        <mxCell id="5d2195bd80daf111-13" value="&amp;laquo;interface&amp;raquo;&lt;br&gt;&lt;b&gt;Name&lt;/b&gt;" style="html=1;rounded=0;shadow=0;comic=0;labelBackgroundColor=none;strokeWidth=1;fontFamily=Verdana;fontSize=10;align=center;" parent="1" vertex="1">
          <mxGeometry x="380" y="495" width="110" height="50" as="geometry" />
        </mxCell>
        <mxCell id="5d2195bd80daf111-14" value="&amp;laquo;interface&amp;raquo;&lt;br&gt;&lt;b&gt;Name&lt;/b&gt;" style="html=1;rounded=0;shadow=0;comic=0;labelBackgroundColor=none;strokeWidth=1;fontFamily=Verdana;fontSize=10;align=center;" parent="1" vertex="1">
          <mxGeometry x="380" y="421" width="110" height="50" as="geometry" />
        </mxCell>
        <mxCell id="5d2195bd80daf111-26" style="edgeStyle=orthogonalEdgeStyle;rounded=0;html=1;dashed=1;labelBackgroundColor=none;startFill=0;endArrow=open;endFill=0;endSize=10;fontFamily=Verdana;fontSize=10;" parent="1" source="5d2195bd80daf111-15" target="5d2195bd80daf111-17" edge="1">
          <mxGeometry relative="1" as="geometry">
            <Array as="points" />
          </mxGeometry>
        </mxCell>
        <mxCell id="5d2195bd80daf111-15" value="&lt;p style=&quot;margin:0px;margin-top:4px;text-align:center;&quot;&gt;&lt;i&gt;&amp;lt;&amp;lt;Interface&amp;gt;&amp;gt;&lt;/i&gt;&lt;br/&gt;&lt;b&gt;Interface&lt;/b&gt;&lt;/p&gt;&lt;hr size=&quot;1&quot;/&gt;&lt;p style=&quot;margin:0px;margin-left:4px;&quot;&gt;+ field1: Type&lt;br/&gt;+ field2: Type&lt;/p&gt;&lt;hr size=&quot;1&quot;/&gt;&lt;p style=&quot;margin:0px;margin-left:4px;&quot;&gt;+ method1(Type): Type&lt;br/&gt;+ method2(Type, Type): Type&lt;/p&gt;" style="verticalAlign=top;align=left;overflow=fill;fontSize=12;fontFamily=Helvetica;html=1;rounded=0;shadow=0;comic=0;labelBackgroundColor=none;strokeWidth=1" parent="1" vertex="1">
          <mxGeometry x="450" y="230" width="190" height="140" as="geometry" />
        </mxCell>
        <mxCell id="5d2195bd80daf111-16" value="Text" style="text;html=1;resizable=0;points=[];autosize=1;align=left;verticalAlign=top;spacingTop=-4;fontSize=10;fontFamily=Verdana;fontColor=#000000;" parent="1" vertex="1">
          <mxGeometry x="450" y="454" width="40" height="10" as="geometry" />
        </mxCell>
        <mxCell id="5d2195bd80daf111-17" value="&amp;laquo;interface&amp;raquo;&lt;br&gt;&lt;b&gt;Name&lt;/b&gt;" style="html=1;rounded=0;shadow=0;comic=0;labelBackgroundColor=none;strokeWidth=1;fontFamily=Verdana;fontSize=10;align=center;" parent="1" vertex="1">
          <mxGeometry x="685" y="275" width="110" height="50" as="geometry" />
        </mxCell>
        <mxCell id="5d2195bd80daf111-21" style="edgeStyle=orthogonalEdgeStyle;rounded=0;html=1;labelBackgroundColor=none;startFill=0;endArrow=open;endFill=0;endSize=10;fontFamily=Verdana;fontSize=10;dashed=1;" parent="1" source="5d2195bd80daf111-18" target="17acba5748e5396b-20" edge="1">
          <mxGeometry relative="1" as="geometry" />
        </mxCell>
        <mxCell id="5d2195bd80daf111-22" style="edgeStyle=orthogonalEdgeStyle;rounded=0;html=1;exitX=1;exitY=0.75;dashed=1;labelBackgroundColor=none;startFill=0;endArrow=open;endFill=0;endSize=10;fontFamily=Verdana;fontSize=10;" parent="1" source="5d2195bd80daf111-18" target="17acba5748e5396b-30" edge="1">
          <mxGeometry relative="1" as="geometry">
            <Array as="points">
              <mxPoint x="530" y="192" />
              <mxPoint x="530" y="142" />
            </Array>
          </mxGeometry>
        </mxCell>
        <mxCell id="5d2195bd80daf111-18" value="&lt;p style=&quot;margin:0px;margin-top:4px;text-align:center;&quot;&gt;&lt;i&gt;&amp;lt;&amp;lt;Interface&amp;gt;&amp;gt;&lt;/i&gt;&lt;br/&gt;&lt;b&gt;Interface&lt;/b&gt;&lt;/p&gt;&lt;hr size=&quot;1&quot;/&gt;&lt;p style=&quot;margin:0px;margin-left:4px;&quot;&gt;+ field1: Type&lt;br/&gt;+ field2: Type&lt;/p&gt;&lt;hr size=&quot;1&quot;/&gt;&lt;p style=&quot;margin:0px;margin-left:4px;&quot;&gt;+ method1(Type): Type&lt;br/&gt;+ method2(Type, Type): Type&lt;/p&gt;" style="verticalAlign=top;align=left;overflow=fill;fontSize=12;fontFamily=Helvetica;html=1;rounded=0;shadow=0;comic=0;labelBackgroundColor=none;strokeWidth=1" parent="1" vertex="1">
          <mxGeometry x="60" y="87" width="190" height="140" as="geometry" />
        </mxCell>
        <mxCell id="5d2195bd80daf111-23" style="edgeStyle=orthogonalEdgeStyle;rounded=0;html=1;dashed=1;labelBackgroundColor=none;startFill=0;endArrow=open;endFill=0;endSize=10;fontFamily=Verdana;fontSize=10;" parent="1" source="5d2195bd80daf111-19" target="17acba5748e5396b-20" edge="1">
          <mxGeometry relative="1" as="geometry">
            <Array as="points">
              <mxPoint x="320" y="290" />
              <mxPoint x="320" y="120" />
            </Array>
          </mxGeometry>
        </mxCell>
        <mxCell id="5d2195bd80daf111-24" style="edgeStyle=orthogonalEdgeStyle;rounded=0;html=1;dashed=1;labelBackgroundColor=none;startFill=0;endArrow=open;endFill=0;endSize=10;fontFamily=Verdana;fontSize=10;" parent="1" source="5d2195bd80daf111-19" target="17acba5748e5396b-30" edge="1">
          <mxGeometry relative="1" as="geometry">
            <Array as="points">
              <mxPoint x="350" y="310" />
              <mxPoint x="350" y="210" />
              <mxPoint x="550" y="210" />
              <mxPoint x="550" y="160" />
            </Array>
          </mxGeometry>
        </mxCell>
        <mxCell id="5d2195bd80daf111-25" style="edgeStyle=orthogonalEdgeStyle;rounded=0;html=1;dashed=1;labelBackgroundColor=none;startFill=0;endArrow=open;endFill=0;endSize=10;fontFamily=Verdana;fontSize=10;" parent="1" source="5d2195bd80daf111-19" target="5d2195bd80daf111-15" edge="1">
          <mxGeometry relative="1" as="geometry">
            <Array as="points">
              <mxPoint x="370" y="340" />
              <mxPoint x="370" y="300" />
            </Array>
          </mxGeometry>
        </mxCell>
        <mxCell id="5d2195bd80daf111-27" style="edgeStyle=orthogonalEdgeStyle;rounded=0;html=1;exitX=1;exitY=0.75;dashed=1;labelBackgroundColor=none;startFill=0;endArrow=open;endFill=0;endSize=10;fontFamily=Verdana;fontSize=10;" parent="1" source="5d2195bd80daf111-19" target="5d2195bd80daf111-14" edge="1">
          <mxGeometry relative="1" as="geometry">
            <Array as="points">
              <mxPoint x="320" y="375" />
              <mxPoint x="320" y="440" />
            </Array>
          </mxGeometry>
        </mxCell>
        <mxCell id="5d2195bd80daf111-19" value="&lt;p style=&quot;margin:0px;margin-top:4px;text-align:center;&quot;&gt;&lt;i&gt;&amp;lt;&amp;lt;Interface&amp;gt;&amp;gt;&lt;/i&gt;&lt;br/&gt;&lt;b&gt;Interface&lt;/b&gt;&lt;/p&gt;&lt;hr size=&quot;1&quot;/&gt;&lt;p style=&quot;margin:0px;margin-left:4px;&quot;&gt;+ field1: Type&lt;br/&gt;+ field2: Type&lt;/p&gt;&lt;hr size=&quot;1&quot;/&gt;&lt;p style=&quot;margin:0px;margin-left:4px;&quot;&gt;+ method1(Type): Type&lt;br/&gt;+ method2(Type, Type): Type&lt;/p&gt;" style="verticalAlign=top;align=left;overflow=fill;fontSize=12;fontFamily=Helvetica;html=1;rounded=0;shadow=0;comic=0;labelBackgroundColor=none;strokeWidth=1" parent="1" vertex="1">
          <mxGeometry x="60" y="270" width="190" height="140" as="geometry" />
        </mxCell>
        <mxCell id="5d2195bd80daf111-28" style="edgeStyle=orthogonalEdgeStyle;rounded=0;html=1;dashed=1;labelBackgroundColor=none;startFill=0;endArrow=open;endFill=0;endSize=10;fontFamily=Verdana;fontSize=10;" parent="1" source="5d2195bd80daf111-20" target="5d2195bd80daf111-14" edge="1">
          <mxGeometry relative="1" as="geometry">
            <Array as="points">
              <mxPoint x="320" y="490" />
              <mxPoint x="320" y="460" />
            </Array>
          </mxGeometry>
        </mxCell>
        <mxCell id="5d2195bd80daf111-29" style="edgeStyle=orthogonalEdgeStyle;rounded=0;html=1;dashed=1;labelBackgroundColor=none;startFill=0;endArrow=open;endFill=0;endSize=10;fontFamily=Verdana;fontSize=10;" parent="1" source="5d2195bd80daf111-20" target="5d2195bd80daf111-13" edge="1">
          <mxGeometry relative="1" as="geometry" />
        </mxCell>
        <mxCell id="5d2195bd80daf111-30" style="edgeStyle=orthogonalEdgeStyle;rounded=0;html=1;dashed=1;labelBackgroundColor=none;startFill=0;endArrow=open;endFill=0;endSize=10;fontFamily=Verdana;fontSize=10;" parent="1" source="5d2195bd80daf111-20" target="5d2195bd80daf111-10" edge="1">
          <mxGeometry relative="1" as="geometry">
            <Array as="points">
              <mxPoint x="300" y="580" />
              <mxPoint x="300" y="642" />
            </Array>
          </mxGeometry>
        </mxCell>
        <mxCell id="5d2195bd80daf111-31" style="edgeStyle=orthogonalEdgeStyle;rounded=0;html=1;dashed=1;labelBackgroundColor=none;startFill=0;endArrow=open;endFill=0;endSize=10;fontFamily=Verdana;fontSize=10;" parent="1" source="5d2195bd80daf111-20" target="5d2195bd80daf111-5" edge="1">
          <mxGeometry relative="1" as="geometry">
            <Array as="points">
              <mxPoint x="350" y="560" />
              <mxPoint x="350" y="560" />
            </Array>
          </mxGeometry>
        </mxCell>
        <mxCell id="5d2195bd80daf111-32" style="edgeStyle=orthogonalEdgeStyle;rounded=0;html=1;dashed=1;labelBackgroundColor=none;startFill=0;endArrow=open;endFill=0;endSize=10;fontFamily=Verdana;fontSize=10;" parent="1" source="5d2195bd80daf111-20" target="5d2195bd80daf111-12" edge="1">
          <mxGeometry relative="1" as="geometry">
            <Array as="points">
              <mxPoint x="170" y="780" />
            </Array>
          </mxGeometry>
        </mxCell>
        <mxCell id="5d2195bd80daf111-33" style="edgeStyle=orthogonalEdgeStyle;rounded=0;html=1;dashed=1;labelBackgroundColor=none;startFill=0;endArrow=open;endFill=0;endSize=10;fontFamily=Verdana;fontSize=10;" parent="1" source="5d2195bd80daf111-20" target="5d2195bd80daf111-11" edge="1">
          <mxGeometry relative="1" as="geometry">
            <Array as="points">
              <mxPoint x="140" y="978" />
            </Array>
          </mxGeometry>
        </mxCell>
        <mxCell id="5d2195bd80daf111-20" value="&lt;p style=&quot;margin:0px;margin-top:4px;text-align:center;&quot;&gt;&lt;i&gt;&amp;lt;&amp;lt;Interface&amp;gt;&amp;gt;&lt;/i&gt;&lt;br/&gt;&lt;b&gt;Interface&lt;/b&gt;&lt;/p&gt;&lt;hr size=&quot;1&quot;/&gt;&lt;p style=&quot;margin:0px;margin-left:4px;&quot;&gt;+ field1: Type&lt;br/&gt;+ field2: Type&lt;/p&gt;&lt;hr size=&quot;1&quot;/&gt;&lt;p style=&quot;margin:0px;margin-left:4px;&quot;&gt;+ method1(Type): Type&lt;br/&gt;+ method2(Type, Type): Type&lt;/p&gt;" style="verticalAlign=top;align=left;overflow=fill;fontSize=12;fontFamily=Helvetica;html=1;rounded=0;shadow=0;comic=0;labelBackgroundColor=none;strokeWidth=1" parent="1" vertex="1">
          <mxGeometry x="60" y="450" width="190" height="140" as="geometry" />
        </mxCell>
        <mxCell id="5d2195bd80daf111-37" style="edgeStyle=orthogonalEdgeStyle;rounded=0;html=1;dashed=1;labelBackgroundColor=none;startFill=0;endArrow=open;endFill=0;endSize=10;fontFamily=Verdana;fontSize=10;" parent="1" source="5d2195bd80daf111-5" target="5d2195bd80daf111-9" edge="1">
          <mxGeometry relative="1" as="geometry">
            <Array as="points">
              <mxPoint x="570" y="590" />
            </Array>
          </mxGeometry>
        </mxCell>
      </root>
    </mxGraphModel>
  </diagram>
</mxfile>
